<svg width="61" height="36" viewBox="0 0 61 36" fill="none" xmlns="http://www.w3.org/2000/svg">
<path d="M0.8125 0.453125H7.23438L14.5 27.5469V35.1875H11.5469L0.8125 0.453125ZM23.7344 0.453125H30.1094L18.8594 35.1875H16.4219V26.0469L23.7344 0.453125ZM37.0469 0.453125H42.6719V35H37.0469V0.453125ZM60.4844 35H54.5312L48.0156 22.4844C47.9219 22.4844 47.8125 22.5 47.6875 22.5312C47.5938 22.5312 47.4375 22.5312 47.2188 22.5312C47 22.5312 46.6719 22.5312 46.2344 22.5312C45.8281 22.5312 45.2812 22.5312 44.5938 22.5312V18.4062H47.7812C48.4688 18.4062 49.1562 18.2969 49.8438 18.0781C50.5312 17.8281 51.1562 17.4375 51.7188 16.9062C52.2812 16.375 52.7344 15.6406 53.0781 14.7031C53.4219 13.7344 53.5938 12.5469 53.5938 11.1406C53.5938 10.5781 53.5156 9.9375 53.3594 9.21875C53.2031 8.46875 52.875 7.76562 52.375 7.10938C51.9062 6.42188 51.2344 5.85938 50.3594 5.42188C49.4844 4.95312 48.3281 4.71875 46.8906 4.71875H44.5938V0.453125H46.9844C48.4531 0.453125 49.9062 0.6875 51.3438 1.15625C52.7812 1.625 54.0625 2.32812 55.1875 3.26562C56.3438 4.20312 57.2656 5.34375 57.9531 6.6875C58.6719 8 59.0312 9.48438 59.0312 11.1406C59.0312 13.6406 58.4531 15.7656 57.2969 17.5156C56.1406 19.2656 54.5781 20.5625 52.6094 21.4062L60.4844 35Z" fill="white"/>
</svg>
