<svg width="17" height="50" viewBox="0 0 17 50" fill="none" xmlns="http://www.w3.org/2000/svg">
<path fill-rule="evenodd" clip-rule="evenodd" d="M8.49299 2C9.34299 2 10.773 2.34 10.883 4.59V4.66C11.0611 5.96391 10.7629 7.28833 10.043 8.39C9.65441 8.83542 9.08339 9.07856 8.49299 9.05H8.36299C7.75017 9.08373 7.15608 8.83281 6.75299 8.37C6.03788 7.27393 5.7431 5.9563 5.92299 4.66V4.59C6.03299 2.34 7.47299 2 8.31299 2H8.49299ZM11.433 14.65C12.2772 15.0404 13.081 15.5126 13.833 16.06C14.1105 16.2619 14.3684 16.4895 14.603 16.74C15.083 17.67 14.813 21.68 14.383 23.31C13.9136 24.7384 13.3075 26.1181 12.573 27.43L12.533 27.49L12.503 27.57C12.1697 28.3178 11.9603 29.1149 11.883 29.93L10.053 47.95C10.0498 47.9802 10.0232 48.0023 9.99299 48H6.84299C6.82967 48.0032 6.81561 48.0008 6.80421 47.9932C6.79281 47.9856 6.78511 47.9735 6.78299 47.96L4.95299 29.93C4.87056 29.1202 4.66486 28.3277 4.34299 27.58L4.30299 27.49L4.25299 27.4C3.52256 26.0944 2.91977 24.7214 2.45299 23.3C2.02299 21.72 1.75299 17.66 2.23299 16.73C2.4645 16.4898 2.71534 16.2691 2.98299 16.07C3.74328 15.5217 4.55353 15.0463 5.40299 14.65L6.80299 16.59L8.39299 18.8L9.99299 16.61L11.433 14.65ZM8.49299 0H8.31299C6.40299 0 4.11299 1.17 3.94299 4.5C3.91299 4.86 3.67299 7.9 5.27299 9.71C6.04705 10.5722 7.1543 11.0603 8.31299 11.05H8.49299C9.65208 11.0727 10.763 10.5866 11.533 9.72C13.133 7.91 12.893 4.86 12.863 4.5C12.693 1.17 10.413 0 8.49299 0V0ZM11.083 12.38C10.787 12.3795 10.5099 12.5255 10.343 12.77L8.40299 15.42L6.49299 12.77C6.32317 12.5301 6.0469 12.3882 5.75299 12.39C5.63698 12.3896 5.52184 12.4099 5.41299 12.45C4.14162 12.9833 2.93407 13.6575 1.81299 14.46C1.44031 14.7321 1.09531 15.0403 0.782986 15.38C-0.587014 16.76 0.182986 22.51 0.542986 23.84C1.05887 25.4122 1.7218 26.9322 2.52299 28.38C2.76911 28.9349 2.92442 29.5258 2.98299 30.13L4.81299 48.16C4.90952 49.2073 5.79131 50.0065 6.84299 50H9.99299C11.0407 49.9962 11.9166 49.2023 12.023 48.16L13.853 30.13C13.9103 29.5256 14.0657 28.9345 14.313 28.38C15.1122 26.9313 15.775 25.4114 16.293 23.84C16.643 22.51 17.433 16.76 16.053 15.38C15.7407 15.0403 15.3957 14.7321 15.023 14.46C13.9021 13.6629 12.6984 12.989 11.433 12.45C11.3207 12.4085 11.2026 12.3849 11.083 12.38Z" fill="url(#paint0_linear_35_36)"/>
<defs>
<linearGradient id="paint0_linear_35_36" x1="0.601811" y1="25" x2="16.837" y2="25" gradientUnits="userSpaceOnUse">
<stop stop-color="#FE6FB2"/>
<stop offset="1" stop-color="#FD8C6E"/>
</linearGradient>
</defs>
</svg>
