<svg width="30" height="38" viewBox="0 0 30 38" fill="none" xmlns="http://www.w3.org/2000/svg">
<path fill-rule="evenodd" clip-rule="evenodd" d="M27.315 6.59928C25.9495 4.56606 24.1141 2.90174 21.9684 1.75156C19.8227 0.60138 17.432 0 15.0044 0C12.5768 0 10.1861 0.60138 8.04039 1.75156C5.89472 2.90174 4.05923 4.56606 2.69382 6.59928C1.3065 8.64403 0.423516 10.9959 0.118911 13.4577C-0.185694 15.9196 0.0969691 18.4195 0.943213 20.7479C1.44977 22.092 2.18581 23.3353 3.1177 24.4211L14.0115 37.5312C14.132 37.6779 14.283 37.7959 14.4536 37.8769C14.6242 37.958 14.8103 38 14.9988 38C15.1872 38 15.3733 37.958 15.5439 37.8769C15.7146 37.7959 15.8655 37.6779 15.986 37.5312L26.876 24.4211C27.8106 23.3375 28.5466 22.0936 29.0493 20.7479C29.8991 18.421 30.1852 15.9216 29.8834 13.4596C29.5816 10.9975 28.7008 8.6449 27.315 6.59928ZM26.6272 19.8232C26.2273 20.8756 25.6484 21.8488 24.9166 22.6986L15.0106 34.6175L5.09842 22.6986C4.36423 21.8454 3.78432 20.8674 3.38532 19.8102C2.68475 17.8864 2.45061 15.8207 2.7026 13.7861C2.95458 11.7516 3.6853 9.80776 4.83332 8.11891C5.95898 6.43365 7.47531 5.05394 9.24958 4.09997C11.0238 3.146 13.0019 2.64714 15.0106 2.64714C17.0194 2.64714 18.9974 3.146 20.7717 4.09997C22.5459 5.05394 24.0623 6.43365 25.188 8.11891C26.3356 9.81044 27.0654 11.7568 27.3158 13.7936C27.5663 15.8303 27.3301 17.8982 26.6272 19.8232Z" fill="#00A8E8"/>
</svg>
