<svg width="69" height="15" viewBox="0 0 69 15" fill="none" xmlns="http://www.w3.org/2000/svg">
<path d="M0.0546875 1.04492H2.46289L5.1875 11.2051V14.0703H4.08008L0.0546875 1.04492ZM8.65039 1.04492H11.041L6.82227 14.0703H5.9082V10.6426L8.65039 1.04492ZM13.6426 1.04492H15.752V14H13.6426V1.04492ZM22.4316 14H20.1992L17.7559 9.30664C17.7207 9.30664 17.6797 9.3125 17.6328 9.32422C17.5977 9.32422 17.5391 9.32422 17.457 9.32422C17.375 9.32422 17.252 9.32422 17.0879 9.32422C16.9355 9.32422 16.7305 9.32422 16.4727 9.32422V7.77734H17.668C17.9258 7.77734 18.1836 7.73633 18.4414 7.6543C18.6992 7.56055 18.9336 7.41406 19.1445 7.21484C19.3555 7.01562 19.5254 6.74023 19.6543 6.38867C19.7832 6.02539 19.8477 5.58008 19.8477 5.05273C19.8477 4.8418 19.8184 4.60156 19.7598 4.33203C19.7012 4.05078 19.5781 3.78711 19.3906 3.54102C19.2148 3.2832 18.9629 3.07227 18.6348 2.9082C18.3066 2.73242 17.873 2.64453 17.334 2.64453H16.4727V1.04492H17.3691C17.9199 1.04492 18.4648 1.13281 19.0039 1.30859C19.543 1.48438 20.0234 1.74805 20.4453 2.09961C20.8789 2.45117 21.2246 2.87891 21.4824 3.38281C21.752 3.875 21.8867 4.43164 21.8867 5.05273C21.8867 5.99023 21.6699 6.78711 21.2363 7.44336C20.8027 8.09961 20.2168 8.58594 19.4785 8.90234L22.4316 14ZM37.4082 3.54102C37.1387 3.23633 36.8516 3.00781 36.5469 2.85547C36.2422 2.70313 35.9141 2.61523 35.5625 2.5918V0.851562C36.875 0.910156 37.9766 1.37305 38.8672 2.24023L37.4082 3.54102ZM35.5625 12.3477C35.9141 12.3125 36.2422 12.2188 36.5469 12.0664C36.8633 11.9141 37.1504 11.6914 37.4082 11.3984L38.8672 12.6816C38.4219 13.1152 37.9238 13.4492 37.373 13.6836C36.8223 13.918 36.2188 14.0527 35.5625 14.0879V12.3477ZM29.8672 7.46094C29.8672 6.41797 29.9902 5.49805 30.2363 4.70117C30.4941 3.9043 30.8457 3.23047 31.291 2.67969C31.7363 2.12891 32.2578 1.70117 32.8555 1.39648C33.4648 1.0918 34.127 0.910156 34.8418 0.851562V2.60938C34.4551 2.66797 34.0918 2.80273 33.752 3.01367C33.4121 3.21289 33.1133 3.50586 32.8555 3.89258C32.5977 4.2793 32.3926 4.77148 32.2402 5.36914C32.0996 5.95508 32.0234 6.65234 32.0117 7.46094C32.0234 8.28125 32.0996 8.98438 32.2402 9.57031C32.3926 10.1562 32.5977 10.6484 32.8555 11.0469C33.1133 11.4453 33.4121 11.75 33.752 11.9609C34.1035 12.1719 34.4668 12.3008 34.8418 12.3477V14.0703C34.127 14.0234 33.4648 13.8477 32.8555 13.543C32.2578 13.2383 31.7363 12.8105 31.291 12.2598C30.8457 11.709 30.4941 11.0352 30.2363 10.2383C29.9902 9.42969 29.8672 8.50391 29.8672 7.46094ZM43.8945 10.9766C43.8945 11.375 43.9473 11.6914 44.0527 11.9258C44.1582 12.1484 44.3047 12.3184 44.4922 12.4355C44.6797 12.541 44.8906 12.6113 45.125 12.6465C45.3711 12.6816 45.6348 12.6992 45.916 12.6992V14C45.7637 14.0234 45.6055 14.041 45.4414 14.0527C45.3125 14.0645 45.1602 14.0703 44.9844 14.0703C44.8086 14.082 44.6328 14.0879 44.457 14.0879C44.2812 14.0879 44.1055 14.082 43.9297 14.0703C43.7539 14.0586 43.5957 14.041 43.4551 14.0176C43.0566 13.9355 42.7461 13.7598 42.5234 13.4902C42.3008 13.2207 42.1309 12.9219 42.0137 12.5938C41.8965 12.2539 41.8203 11.9258 41.7852 11.6094C41.7617 11.293 41.75 11.0469 41.75 10.8711V10.6602V0.341797H43.8945V10.9766ZM50.2402 9.48242C50.2402 9.89258 50.2578 10.2793 50.293 10.6426C50.3281 10.9941 50.4043 11.3047 50.5215 11.5742C50.6387 11.8438 50.8145 12.0605 51.0488 12.2246C51.2832 12.3887 51.5938 12.4707 51.9805 12.4707C52.1328 12.4707 52.3496 12.4473 52.6309 12.4004C52.9121 12.3535 53.1816 12.2773 53.4395 12.1719V13.4727C53.1348 13.6367 52.8008 13.7832 52.4375 13.9121C52.0859 14.0293 51.7344 14.0879 51.3828 14.0879C51.1016 14.0879 50.8496 14.0586 50.627 14C50.4043 13.9531 50.1934 13.877 49.9941 13.7715C49.8066 13.6543 49.625 13.5254 49.4492 13.3848C49.2734 13.2441 49.0977 13.0859 48.9219 12.9102C48.7227 12.7109 48.5645 12.4824 48.4473 12.2246C48.3301 11.9551 48.2422 11.6797 48.1836 11.3984C48.1367 11.1055 48.1074 10.8125 48.0957 10.5195C48.0957 10.2266 48.0957 9.93945 48.0957 9.6582V4.08594H50.2402V9.48242ZM56.3047 4.08594V14H54.3887L54.1602 12.9805V4.08594H56.3047ZM59.293 0.341797H61.4199V12.8223C61.4082 12.9863 61.3906 13.1738 61.3672 13.3848C61.3438 13.5957 61.3262 13.8008 61.3145 14H59.293V0.341797ZM67.959 7.0918C68.0996 7.63086 68.1699 8.22266 68.1699 8.86719C68.1699 9.53516 68.0879 10.1855 67.9238 10.8184C67.7715 11.4512 67.5312 12.0137 67.2031 12.5059C66.8867 12.9863 66.4824 13.373 65.9902 13.666C65.5098 13.9473 64.9414 14.0879 64.2852 14.0879C63.875 14.0879 63.4824 14.041 63.1074 13.9473C62.7324 13.8535 62.4102 13.7246 62.1406 13.5605V11.7324C62.3164 11.9316 62.5215 12.0957 62.7559 12.2246C63.002 12.3535 63.2715 12.418 63.5645 12.418C63.916 12.418 64.2324 12.3301 64.5137 12.1543C64.8066 11.9785 65.0527 11.7441 65.252 11.4512C65.4629 11.1465 65.627 10.7891 65.7441 10.3789C65.873 9.96875 65.9375 9.5293 65.9375 9.06055C65.9375 8.60352 65.8789 8.16992 65.7617 7.75977C65.6562 7.34961 65.5039 6.98633 65.3047 6.66992C65.1172 6.35352 64.8828 6.10156 64.6016 5.91406C64.3203 5.72656 64.0039 5.63281 63.6523 5.63281C63.3477 5.63281 63.0664 5.69727 62.8086 5.82617C62.5625 5.94336 62.3398 6.11914 62.1406 6.35352V4.47266C62.4102 4.32031 62.709 4.20312 63.0371 4.12109C63.3652 4.03906 63.7051 3.99805 64.0566 3.99805C64.4434 3.99805 64.8359 4.05078 65.2344 4.15625C65.6328 4.26172 66.002 4.4375 66.3418 4.68359C66.6934 4.92969 67.0098 5.25195 67.291 5.65039C67.584 6.04883 67.8066 6.5293 67.959 7.0918Z" fill="white"/>
</svg>
