<svg width="183" height="38" viewBox="0 0 183 38" fill="none" xmlns="http://www.w3.org/2000/svg">
<path d="M0.8125 2.45312H7.23438L14.5 29.5469V37.1875H11.5469L0.8125 2.45312ZM23.7344 2.45312H30.1094L18.8594 37.1875H16.4219V28.0469L23.7344 2.45312Z" fill="white"/>
<path d="M37.0469 2.45312H42.6719V37H37.0469V2.45312ZM60.4844 37H54.5312L48.0156 24.4844C47.9219 24.4844 47.8125 24.5 47.6875 24.5312C47.5938 24.5312 47.4375 24.5312 47.2188 24.5312C47 24.5312 46.6719 24.5312 46.2344 24.5312C45.8281 24.5312 45.2812 24.5312 44.5938 24.5312V20.4062H47.7812C48.4688 20.4062 49.1562 20.2969 49.8438 20.0781C50.5312 19.8281 51.1562 19.4375 51.7188 18.9062C52.2812 18.375 52.7344 17.6406 53.0781 16.7031C53.4219 15.7344 53.5938 14.5469 53.5938 13.1406C53.5938 12.5781 53.5156 11.9375 53.3594 11.2188C53.2031 10.4688 52.875 9.76562 52.375 9.10938C51.9062 8.42188 51.2344 7.85938 50.3594 7.42188C49.4844 6.95312 48.3281 6.71875 46.8906 6.71875H44.5938V2.45312H46.9844C48.4531 2.45312 49.9062 2.6875 51.3438 3.15625C52.7812 3.625 54.0625 4.32812 55.1875 5.26562C56.3438 6.20312 57.2656 7.34375 57.9531 8.6875C58.6719 10 59.0312 11.4844 59.0312 13.1406C59.0312 15.6406 58.4531 17.7656 57.2969 19.5156C56.1406 21.2656 54.5781 22.5625 52.6094 23.4062L60.4844 37Z" fill="white"/>
<path d="M100.422 9.10938C99.7031 8.29688 98.9375 7.6875 98.125 7.28125C97.3125 6.875 96.4375 6.64062 95.5 6.57812V1.9375C99 2.09375 101.938 3.32812 104.312 5.64062L100.422 9.10938ZM95.5 32.5938C96.4375 32.5 97.3125 32.25 98.125 31.8438C98.9688 31.4375 99.7344 30.8438 100.422 30.0625L104.312 33.4844C103.125 34.6406 101.797 35.5312 100.328 36.1562C98.8594 36.7812 97.25 37.1406 95.5 37.2344V32.5938ZM80.3125 19.5625C80.3125 16.7812 80.6406 14.3281 81.2969 12.2031C81.9844 10.0781 82.9219 8.28125 84.1094 6.8125C85.2969 5.34375 86.6875 4.20312 88.2812 3.39062C89.9062 2.57812 91.6719 2.09375 93.5781 1.9375V6.625C92.5469 6.78125 91.5781 7.14062 90.6719 7.70312C89.7656 8.23438 88.9688 9.01562 88.2812 10.0469C87.5938 11.0781 87.0469 12.3906 86.6406 13.9844C86.2656 15.5469 86.0625 17.4062 86.0312 19.5625C86.0625 21.75 86.2656 23.625 86.6406 25.1875C87.0469 26.75 87.5938 28.0625 88.2812 29.125C88.9688 30.1875 89.7656 31 90.6719 31.5625C91.6094 32.125 92.5781 32.4688 93.5781 32.5938V37.1875C91.6719 37.0625 89.9062 36.5938 88.2812 35.7812C86.6875 34.9688 85.2969 33.8281 84.1094 32.3594C82.9219 30.8906 81.9844 29.0938 81.2969 26.9688C80.6406 24.8125 80.3125 22.3438 80.3125 19.5625Z" fill="white"/>
<path d="M117.719 28.9375C117.719 30 117.859 30.8438 118.141 31.4688C118.422 32.0625 118.812 32.5156 119.312 32.8281C119.812 33.1094 120.375 33.2969 121 33.3906C121.656 33.4844 122.359 33.5312 123.109 33.5312V37C122.703 37.0625 122.281 37.1094 121.844 37.1406C121.5 37.1719 121.094 37.1875 120.625 37.1875C120.156 37.2188 119.688 37.2344 119.219 37.2344C118.75 37.2344 118.281 37.2188 117.812 37.1875C117.344 37.1562 116.922 37.1094 116.547 37.0469C115.484 36.8281 114.656 36.3594 114.062 35.6406C113.469 34.9219 113.016 34.125 112.703 33.25C112.391 32.3438 112.188 31.4688 112.094 30.625C112.031 29.7812 112 29.125 112 28.6562V0.578125H117.719V28.9375Z" fill="white"/>
<path d="M134.641 24.9531C134.641 26.0469 134.688 27.0781 134.781 28.0469C134.875 28.9844 135.078 29.8125 135.391 30.5312C135.703 31.25 136.172 31.8281 136.797 32.2656C137.422 32.7031 138.25 32.9219 139.281 32.9219C139.688 32.9219 140.266 32.8594 141.016 32.7344C141.766 32.6094 142.484 32.4062 143.172 32.125V35.5938C142.359 36.0312 141.469 36.4219 140.5 36.7656C139.562 37.0781 138.625 37.2344 137.688 37.2344C136.938 37.2344 136.266 37.1562 135.672 37C135.078 36.875 134.516 36.6719 133.984 36.3906C133.484 36.0781 133 35.7344 132.531 35.3594C132.062 34.9844 131.594 34.5625 131.125 34.0938C130.594 33.5625 130.172 32.9531 129.859 32.2656C129.547 31.5469 129.312 30.8125 129.156 30.0625C129.031 29.2812 128.953 28.5 128.922 27.7188C128.922 26.9375 128.922 26.1719 128.922 25.4219V10.5625H134.641V24.9531ZM150.812 10.5625V37H145.703L145.094 34.2812V10.5625H150.812Z" fill="white"/>
<path d="M158.781 0.578125H164.453V33.8594C164.422 34.2969 164.375 34.7969 164.312 35.3594C164.25 35.9219 164.203 36.4688 164.172 37H158.781V0.578125ZM181.891 18.5781C182.266 20.0156 182.453 21.5938 182.453 23.3125C182.453 25.0938 182.234 26.8281 181.797 28.5156C181.391 30.2031 180.75 31.7031 179.875 33.0156C179.031 34.2969 177.953 35.3281 176.641 36.1094C175.359 36.8594 173.844 37.2344 172.094 37.2344C171 37.2344 169.953 37.1094 168.953 36.8594C167.953 36.6094 167.094 36.2656 166.375 35.8281V30.9531C166.844 31.4844 167.391 31.9219 168.016 32.2656C168.672 32.6094 169.391 32.7812 170.172 32.7812C171.109 32.7812 171.953 32.5469 172.703 32.0781C173.484 31.6094 174.141 30.9844 174.672 30.2031C175.234 29.3906 175.672 28.4375 175.984 27.3438C176.328 26.25 176.5 25.0781 176.5 23.8281C176.5 22.6094 176.344 21.4531 176.031 20.3594C175.75 19.2656 175.344 18.2969 174.812 17.4531C174.312 16.6094 173.688 15.9375 172.938 15.4375C172.188 14.9375 171.344 14.6875 170.406 14.6875C169.594 14.6875 168.844 14.8594 168.156 15.2031C167.5 15.5156 166.906 15.9844 166.375 16.6094V11.5938C167.094 11.1875 167.891 10.875 168.766 10.6562C169.641 10.4375 170.547 10.3281 171.484 10.3281C172.516 10.3281 173.562 10.4688 174.625 10.75C175.688 11.0312 176.672 11.5 177.578 12.1562C178.516 12.8125 179.359 13.6719 180.109 14.7344C180.891 15.7969 181.484 17.0781 181.891 18.5781Z" fill="white"/>
</svg>
